<svg viewBox="0 0 32 32" fill="none" xmlns="http://www.w3.org/2000/svg" transform="translate(8 8)"><path d="M11.0306 5.46369C11.0304 3.78995 9.67334 2.43357 7.99955 2.43357C6.32595 2.4338 4.96965 3.79009 4.96943 5.46369C4.96943 7.13748 6.32581 8.49455 7.99955 8.49477C9.67348 8.49477 11.0306 7.13762 11.0306 5.46369ZM12.3163 5.46369C12.3163 7.84777 10.3836 9.78042 7.99955 9.78042C5.61566 9.7802 3.68281 7.84763 3.68281 5.46369C3.68304 3.07994 5.61579 1.14718 7.99955 1.14696C10.3835 1.14696 12.3161 3.0798 12.3163 5.46369Z" fill="#81858c"></path><path d="M7.99996 10.3316C11.7342 10.3316 14.1863 11.8997 15.0387 14.4445L14.4292 14.6483L13.8197 14.8531C13.1954 12.9893 11.3672 11.6182 7.99996 11.6182C4.63271 11.6182 2.80449 12.9893 2.18024 14.8531L1.57074 14.6483L0.961243 14.4445C1.81362 11.8997 4.26573 10.3316 7.99996 10.3316Z" fill="#81858c"></path></svg>